
<svg xmlns="http://www.w3.org/2000/svg" viewBox="0 0 120 120"><g opacity=".25"><path fill="none" stroke="#000" stroke-width="2" stroke-linecap="round" stroke-linejoin="round" stroke-miterlimit="10" d="M95.045 88H22.737l36.09-62.875L94.99 88z"/><path fill="none" stroke="#000" stroke-linecap="round" stroke-linejoin="round" stroke-miterlimit="10" d="M33 69.5h52M45 50.5h28"/><path d="M12.772 98.65c-.892-1.55-1.336-3.964-1.336-7.24V77.45c0-3.504-.403-6.45-1.207-8.835-.806-2.384-2.472-4.41-5-6.077v-1.724c.976-.172 1.838-.69 2.586-1.55.746-.863 1.393-1.954 1.94-3.276.544-1.32.96-2.815 1.25-4.482.286-1.666.43-3.36.43-5.085V32.196c0-3.275.444-5.66 1.336-7.154.89-1.494 2.543-2.24 4.956-2.24h4.31v1.723H17.9c-1.723 0-2.944.646-3.662 1.94-.72 1.292-1.077 3.72-1.077 7.282v14.136c0 1.265-.115 2.615-.344 4.05-.23 1.438-.603 2.817-1.12 4.138-.517 1.322-1.164 2.5-1.94 3.534s-1.71 1.782-2.8 2.24c1.896.92 3.405 2.688 4.525 5.302 1.122 2.615 1.682 5.56 1.682 8.835V89.86c0 1.896.1 3.46.302 4.697.2 1.235.487 2.198.862 2.888.373.69.862 1.164 1.465 1.422.604.26 1.307.388 2.113.388h4.137v1.724h-4.31c-2.415-.002-4.068-.778-4.958-2.33zM107.324 25.13c.89 1.55 1.336 3.964 1.336 7.24v14.048c0 3.506.4 6.464 1.207 8.878.804 2.413 2.47 4.425 5 6.033v1.723c-.92.172-1.768.69-2.544 1.55-.776.863-1.437 1.955-1.982 3.276-.546 1.322-.962 2.815-1.25 4.48-.287 1.668-.43 3.362-.43 5.086v14.136c0 3.275-.446 5.66-1.336 7.154-.89 1.494-2.543 2.24-4.956 2.24h-4.31v-1.723h4.137c1.724 0 2.944-.646 3.663-1.94.718-1.292 1.077-3.72 1.077-7.282V75.983c0-1.263.114-2.614.345-4.05.23-1.437.603-2.816 1.12-4.138.517-1.32 1.164-2.5 1.94-3.534.775-1.034 1.708-1.78 2.8-2.24-1.896-.92-3.404-2.686-4.525-5.302-1.12-2.614-1.68-5.56-1.68-8.835V33.92c0-1.896-.102-3.46-.303-4.697-.202-1.235-.49-2.198-.862-2.887-.374-.69-.862-1.164-1.465-1.422s-1.308-.388-2.112-.388h-4.137v-1.724h4.31c2.415 0 4.066.775 4.958 2.327z"/></g></svg>