
<svg xmlns="http://www.w3.org/2000/svg" viewBox="0 0 120 120"><g opacity=".25"><path fill="none" stroke="#000" stroke-width="2" stroke-miterlimit="10" d="M63.917 94.906V102c0 3.314-2.59 6-5.786 6H15.703c-3.195 0-5.786-2.686-5.786-6V18c0-3.314 2.59-6 5.786-6h42.43c3.194 0 5.785 2.686 5.785 6v32.167M63.917 67.75v15.594M63.917 55.75v3.75"/><path fill="none" stroke="#000" stroke-miterlimit="10" d="M60.06 93.726H13.774V22.774H60.06V47M60.06 63.417v19.687M60.06 50.563v6.166"/><path fill="none" stroke="#000" stroke-linecap="round" stroke-linejoin="round" stroke-miterlimit="10" d="M33 18.5h8"/><circle fill="none" stroke="#000" stroke-miterlimit="10" cx="36.917" cy="100.25" r="4.25"/><path fill="none" stroke="#000" stroke-linecap="round" stroke-linejoin="round" stroke-miterlimit="10" d="M29 18.5h1"/><path opacity=".5" fill="none" stroke="#000" stroke-width="2" stroke-linecap="round" stroke-linejoin="round" stroke-miterlimit="10" d="M9 27v6M9 37v4M9 44v4"/><path fill="none" stroke="#000" stroke-width="2" stroke-linecap="round" stroke-linejoin="round" stroke-miterlimit="10" d="M80.683 34.473c30.693 20.864 20.763 43.833 20.763 43.833s8.727 9.83 5.216 18.456c0 0-3.61-6.018-9.63-6.018-5.817 0-9.227 6.018-20.963 6.018-26.08 0-38.418-21.766-38.418-21.766 23.482 15.473 39.52 4.514 39.52 4.514-10.592-6.153-33.1-35.508-33.1-35.508C63.69 60.69 72.157 65.067 72.157 65.067c-5.07-4.174-19.26-24.575-19.26-24.575C64.254 51.98 86.803 67.975 86.803 67.975c6.432-17.68-6.12-33.502-6.12-33.502z"/></g></svg>