
<svg xmlns="http://www.w3.org/2000/svg" viewBox="0 0 120 120"><g opacity=".25"><path fill="none" stroke="#000" stroke-linecap="round" stroke-miterlimit="10" d="M6 64.5h45M56 64.5h52"/><circle fill="none" stroke="#000" stroke-width="2" stroke-miterlimit="10" cx="82.015" cy="64.189" r="30.5"/><circle fill="none" stroke="#000" stroke-miterlimit="10" cx="82.015" cy="64.189" r="26.5"/><path fill="none" stroke="#000" stroke-width="2" stroke-miterlimit="10" d="M103.737 85.594l9.074 8.113c.295.26.563.554.76.895 1.985 3.456 1 7.913-2.35 10.193l-1.325.902c-3.35 2.28-7.857 1.56-10.343-1.556-.245-.306-.42-.664-.554-1.032l-4.1-11.396"/><path opacity=".15" fill="none" stroke="#000" stroke-linecap="round" stroke-miterlimit="10" d="M111.56 96.788c.55 2.447-.31 5.012-2.386 6.425-2.114 1.438-4.877 1.266-6.964-.218"/><g fill="none" stroke="#000" stroke-linecap="round" stroke-miterlimit="10" opacity=".4"><path d="M14.5 38v2"/><path stroke-dasharray="3,3" d="M14.5 43v17"/><path d="M14.5 61v2"/></g><g fill="none" stroke="#000" stroke-linecap="round" stroke-miterlimit="10" opacity=".4"><path d="M24.5 46v2"/><path stroke-dasharray="3,3" d="M24.5 50v10"/><path d="M24.5 62v1"/></g><g fill="none" stroke="#000" stroke-linecap="round" stroke-miterlimit="10" opacity=".4"><path d="M34.5 8v1"/><path stroke-dasharray="3,3" d="M34.5 13v47"/><path d="M34.5 61v2"/></g><g fill="none" stroke="#000" stroke-linecap="round" stroke-miterlimit="10" opacity=".4"><path d="M44.5 34v1"/><path stroke-dasharray="3,3" d="M44.5 38v22"/><path d="M44.5 61v2"/></g><g fill="none" stroke="#000" stroke-linecap="round" stroke-miterlimit="10" opacity=".4"><path d="M66.5 52v2"/><path stroke-dasharray="3,3" d="M66.5 56v4"/><path d="M66.5 62v1"/></g><g fill="none" stroke="#000" stroke-linecap="round" stroke-miterlimit="10" opacity=".4"><path d="M81.5 41v1"/><path stroke-dasharray="3,3" d="M81.5 45v15"/><path d="M81.5 62v1"/></g><g fill="none" stroke="#000" stroke-linecap="round" stroke-miterlimit="10" opacity=".4"><path d="M96.5 50v2"/><path stroke-dasharray="3,3" d="M96.5 55v5"/><path d="M96.5 61v2"/></g><path fill="none" stroke="#000" stroke-linecap="round" stroke-linejoin="round" stroke-miterlimit="10" d="M5.833 64.5L14.5 37l9.937 7.75L35 6.5 44.875 33l13.25 11.875M61.75 47.5L66 51l15.5-10.917 15 8.667 4-3.167"/><g fill="none" stroke="#000" stroke-linecap="round" stroke-miterlimit="10" opacity=".2"><path d="M14.5 66v2"/><path stroke-dasharray="3,3" d="M14.5 70v29"/><path d="M14.5 100v2"/></g><g fill="none" stroke="#000" stroke-linecap="round" stroke-miterlimit="10" opacity=".2"><path d="M24.5 66v2"/><path stroke-dasharray="3,3" d="M24.5 70v9"/><path d="M24.5 81v1"/></g><g fill="none" stroke="#000" stroke-linecap="round" stroke-miterlimit="10" opacity=".2"><path d="M34.5 66v2"/><path stroke-dasharray="3,3" d="M34.5 71v4"/><path d="M34.5 77v1"/></g><g fill="none" stroke="#000" stroke-linecap="round" stroke-miterlimit="10" opacity=".2"><path d="M44.5 66v2"/><path stroke-dasharray="3,3" d="M44.5 70v17"/><path d="M44.5 88v2"/></g><path fill="none" stroke="#000" stroke-linecap="round" stroke-linejoin="round" stroke-miterlimit="10" d="M6 64.75L14 104l10.5-20.75 9.75-3.5L44.5 91.5 60 86.25"/><g fill="none" stroke="#000" stroke-linecap="round" stroke-miterlimit="10" opacity=".4"><path d="M66.5 66v1"/><path stroke-dasharray="3,3" d="M66.5 70v11"/><path d="M66.5 83v1"/></g><g fill="none" stroke="#000" stroke-linecap="round" stroke-miterlimit="10" opacity=".4"><path d="M81.5 66v1"/><path stroke-dasharray="4,4" d="M81.5 71v5"/><path d="M81.5 78v2"/></g><g fill="none" stroke="#000" stroke-linecap="round" stroke-miterlimit="10" opacity=".4"><path d="M96.5 66v1"/><path stroke-dasharray="3,3" d="M96.5 70v5"/><path d="M96.5 77v1"/></g><path fill="none" stroke="#000" stroke-linecap="round" stroke-linejoin="round" stroke-miterlimit="10" d="M77.375 90.25l4.125-9.5L97 85.5"/></g></svg>