
<svg xmlns="http://www.w3.org/2000/svg" viewBox="0 0 120 120"><g opacity=".25" fill="none" stroke="#000" stroke-miterlimit="10"><path d="M73 85.5H8.5v-64h89V44"/><path stroke-width="2" d="M73.833 90H7.043C5.913 90 5 89.01 5 87.788V19.212C5 17.99 5.914 17 7.043 17h91.915c1.128 0 2.043.99 2.043 2.212v25.87M42 90h21v13H42z"/><path stroke-width="2" stroke-linecap="round" d="M32 103h41"/><path d="M74 85.5H20.5v-64h65V45"/><circle cx="25" cy="25" r="1"/><circle cx="29" cy="25" r="1"/><circle cx="33" cy="25" r="1"/><path d="M21 28.5h64M21 55.5l52.917.083M48.5 73.5h-20c-.552 0-1-.448-1-1v-10c0-.552.448-1 1-1h20c.552 0 1 .448 1 1v10c0 .552-.448 1-1 1zM74 73.53l-16.5-.03c-.552 0-1-.448-1-1v-10c0-.552.448-1 1-1l16.47-.03"/><path stroke-linecap="round" d="M28 76.5h15M57 76.5h11M71 76.5h3"/><path d="M45 49.5h16M57 34.174L51.15 38.5h4.275l-5.06 4.248"/><g><path stroke-width="2" d="M110.947 110H76.053c-1.134 0-2.053-.924-2.053-2.063V47.063c0-1.14.92-2.063 2.053-2.063h34.895c1.134 0 2.053.924 2.053 2.063v60.873c0 1.14-.92 2.064-2.053 2.064z"/><path d="M77.5 51.5h32v53h-32zM90 48.5h7M78 78.5h31M86 69.5h15"/><path d="M96 57.907L92.63 60.5h2.463l-2.917 2.398M103.5 96.5h-20c-.552 0-1-.448-1-1v-10c0-.552.448-1 1-1h20c.552 0 1 .448 1 1v10c0 .552-.448 1-1 1z"/><path stroke-linecap="round" d="M83 99.5h15"/></g></g></svg>