
<svg xmlns="http://www.w3.org/2000/svg" viewBox="0 0 120 120"><g opacity=".25"><path fill="none" stroke="#000" stroke-miterlimit="10" d="M46.063 97.476h-35.29V23.774H61.06v16.29"/><path fill="none" stroke="#000" stroke-linecap="round" stroke-linejoin="round" stroke-miterlimit="10" d="M26 18.5h23"/><path fill="none" stroke="#000" stroke-width="2" stroke-miterlimit="10" d="M61.41 101.202c-.586 3.842-3.904 6.786-7.91 6.786H18.333c-4.418 0-8-3.582-8-8V20.762c0-4.418 3.582-8 8-8H53.5c4.418 0 8 3.582 8 8v18.926"/><circle fill="none" stroke="#000" stroke-miterlimit="10" cx="53.667" cy="18.333" r="1.708"/><circle opacity=".5" cx="17.667" cy="18.333" r="1.333"/><circle opacity=".5" cx="21.667" cy="18.333" r="1.333"/><path fill="none" stroke="#000" stroke-linecap="round" stroke-linejoin="round" stroke-miterlimit="10" d="M29 102.5h15"/><g><path fill="none" stroke="#000" stroke-width="2" stroke-linecap="round" stroke-linejoin="round" stroke-miterlimit="10" d="M45 64c0-13.932 11.417-25.5 25.5-25.5S96 50.068 96 64H45z"/><circle cx="61.75" cy="53" r="1.75"/><circle cx="78.75" cy="53" r="1.75"/><g fill="none" stroke="#000" stroke-width="2" stroke-linecap="round" stroke-linejoin="round" stroke-miterlimit="10"><path d="M79.5 101.455v6.09c0 2.46-1.995 4.455-4.455 4.455h-.09c-2.46 0-4.455-1.995-4.455-4.455v-6.09M70.5 101.455v6.09c0 2.46-1.995 4.455-4.455 4.455h-.09c-2.46 0-4.455-1.995-4.455-4.455v-6.09"/></g><path fill="none" stroke="#000" stroke-width="2" stroke-linecap="round" stroke-linejoin="round" stroke-miterlimit="10" d="M54 44l-6.75-8.5M86.25 44L93 35.5M103.12 74.514l-.086-.026c-2.358-.702-3.7-3.183-3-5.54l4.306-14.464c.702-2.358 3.183-3.7 5.54-3l.087.027c2.358.703 3.7 3.184 3 5.542l-4.306 14.463c-.702 2.358-3.182 3.7-5.54 3zM87 101H53c-4.418 0-8-3.582-8-8V64h51v28c0 4.97-4.03 9-9 9zM40.545 90h-.09C37.995 90 36 88.005 36 85.545v-15.09C36 67.995 37.995 66 40.455 66h.09C43.005 66 45 67.995 45 70.455v15.09C45 88.005 43.005 90 40.545 90z"/></g></g></svg>