
<svg xmlns="http://www.w3.org/2000/svg" viewBox="0 0 120 120"><g opacity=".25" fill="none" stroke="#000" stroke-miterlimit="10"><g stroke-width="2"><path stroke-linecap="round" stroke-linejoin="round" d="M93 79h18c1.657 0 3-1.343 3-3V60c0-1.657-1.343-3-3-3 1.657 0 3-1.343 3-3V39c0-1.657-1.343-3-3-3 1.657 0 3-1.343 3-3V18c0-1.657-1.343-3-3-3H60c-1.657 0-3 1.343-3 3v12"/><path d="M93 36h18M93 57h18"/></g><path stroke-width="2" d="M91.236 93.89h-80.55c-.99 0-1.79-.87-1.79-1.94V31.854c0-1.07.8-1.94 1.79-1.94h80.55c.99 0 1.79.87 1.79 1.94V91.95c0 1.07-.8 1.94-1.79 1.94zM41 94h19v11H41z"/><path stroke-width="2" stroke-linecap="round" d="M33 105h34"/><path d="M12.5 35.5h77v53h-77z"/><path stroke-linecap="round" stroke-linejoin="round" d="M59.862 71.766l11.44-6.46-6.706-11.552-1.57 5.86L42.34 54.07l-1.68 6.28 20.683 5.542-1.583 5.91-20.685-5.542-1.57 5.86-6.485-11.254 11.295-6.614"/></g></svg>