<?xml version="1.0" ?><!DOCTYPE svg  PUBLIC '-//W3C//DTD SVG 1.1//EN'  'http://www.w3.org/Graphics/SVG/1.1/DTD/svg11.dtd'><svg enable-background="new 0 0 512 512" height="512px" id="Layer_1" version="1.1" viewBox="0 0 512 512" width="512px" xml:space="preserve" xmlns="http://www.w3.org/2000/svg" xmlns:xlink="http://www.w3.org/1999/xlink"><rect fill="#FFFFFF" height="400" width="1300" x="-2243.5" y="1201"/><path d="M512,432c0,44.182-35.816,80-80,80H80.001c-44.183,0-80-35.818-80-80V80c0-44.183,35.817-80,80-80H432  c44.184,0,80,35.817,80,80V432z" fill="#A4C439"/><path d="M512,432V309.396L309.357,106.754l-18.224,30.996l13.08,13.25h-50.877l-15.854-15.854l-1.427,1.428  l-29.683-29.684L219.25,136.5l7.951,8.929L221.63,151H196v25.631l-23.435,23.436l86.337,86.338l-10.16,10.159l-88.409-88.409  l-26.755,26.756l16.755,16.756v38.001h6.769l-22.578,22.577l83.749,83.748l-5.43,5.43L323.422,512H432  C476.184,512,512,476.182,512,432z M309,155.849l0.93,0.941l-0.93,0.929V155.849z M297.338,195l-12-12h13.21l12,12H297.338z   M329,216.305v-2.853l1.426,1.427L329,216.305z" fill="#4C5B0E"/><g><path d="M338.781,206.501v-0.002l-165.536,0.029l0.027,120.165c-0.002,3.205,0.773,6.218,2.121,8.891   c3.249,6.451,9.909,10.873,17.636,10.868l13.453,0.003l0.016,41.025c-0.002,7.66,4.666,14.246,11.305,17.061   c2.213,0.94,4.646,1.459,7.197,1.459c0.639,0,1.271-0.032,1.894-0.096c9.342-0.95,16.627-8.854,16.63-18.435l-0.011-41.021   l24.998-0.005l-0.002,41.026c0.01,10.214,8.318,18.525,18.521,18.509c10.231,0.007,18.525-8.307,18.523-18.526l-0.01-41.015   l13.501-0.003c4.214,0.001,8.114-1.333,11.325-3.589c5.094-3.571,8.436-9.477,8.438-16.18l-0.02-120.166H338.781z" fill="#FFFFFF"/><path d="M382.959,221.519c0-10.225-8.289-18.514-18.514-18.512c-10.225-0.007-18.513,8.295-18.511,18.521   l0.007,77.539c0.005,10.24,8.289,18.521,18.523,18.516c10.223-0.001,18.508-8.275,18.51-18.521L382.959,221.519z" fill="#FFFFFF"/><path d="M147.543,203.032c-10.226-0.005-18.513,8.299-18.515,18.516l0.014,77.54   c0.001,6.359,3.196,11.952,8.061,15.285c2.978,2.043,6.578,3.244,10.457,3.247c8.955-0.01,16.42-6.348,18.14-14.795   c0.245-1.208,0.374-2.457,0.373-3.737l0.001-77.551C166.068,211.323,157.769,203.025,147.543,203.032z" fill="#FFFFFF"/><path d="M296.861,133.402l12.924-23.601c0.129-0.231,0.205-0.475,0.257-0.722c0.212-1.016-0.212-2.089-1.118-2.673   c-0.052-0.034-0.098-0.075-0.152-0.106c-0.117-0.063-0.24-0.105-0.361-0.148c-0.895-0.319-1.865-0.125-2.551,0.473   c-0.225,0.195-0.424,0.426-0.572,0.703l-13.058,23.838c-3.786-1.68-7.731-3.101-11.806-4.249   c-7.74-2.186-15.951-3.367-24.473-3.357c-2.398-0.002-4.774,0.091-7.123,0.273c-0.031,0.002-0.064,0.003-0.096,0.006   c-10.313,0.809-20.091,3.353-28.979,7.302l-13.067-23.785c-0.56-1.042-1.741-1.523-2.83-1.265   c-0.058,0.014-0.116,0.019-0.173,0.036c-0.002,0-0.004,0.001-0.005,0.002c-0.16,0.05-0.317,0.116-0.469,0.201   c-0.269,0.145-0.494,0.337-0.686,0.552c-0.37,0.412-0.6,0.925-0.649,1.464c-0.045,0.493,0.053,1.002,0.315,1.464l12.929,23.582   c-17.755,9.16-31.475,24.108-38.128,42.055c-0.487,1.313-0.945,2.636-1.354,3.979c-2.004,6.571-3.074,13.501-3.071,20.662   l166.792-0.016C339.361,171.432,322.229,146.537,296.861,133.402z M218.016,169.871c-3.841-0.008-6.97-3.13-6.971-6.987   c0.002-3.842,3.129-7,6.978-7.001c3.867-0.003,6.995,3.159,7,6.999C225.023,166.736,221.889,169.869,218.016,169.871z    M293.961,169.858c-3.854,0.005-6.993-3.123-6.992-6.992c0.012-3.831,3.133-6.994,6.996-7.007c3.834,0.012,6.981,3.173,6.979,7.012   C300.945,166.731,297.817,169.859,293.961,169.858z" fill="#FFFFFF"/></g></svg>