<?xml version="1.0" encoding="utf-8"?>
<!-- Generator: Adobe Illustrator 17.1.0, SVG Export Plug-In . SVG Version: 6.00 Build 0)  -->
<!DOCTYPE svg PUBLIC "-//W3C//DTD SVG 1.1//EN" "http://www.w3.org/Graphics/SVG/1.1/DTD/svg11.dtd">
<svg version="1.1" id="Layer_1" xmlns="http://www.w3.org/2000/svg" xmlns:xlink="http://www.w3.org/1999/xlink" x="0px" y="0px"
	 viewBox="0 0 120 120" enable-background="new 0 0 120 120" xml:space="preserve">
<g opacity="0.25">
	<line fill="none" stroke="#000000" stroke-linecap="round" stroke-miterlimit="10" x1="6" y1="64.5" x2="51" y2="64.5"/>
	<line fill="none" stroke="#000000" stroke-linecap="round" stroke-miterlimit="10" x1="56" y1="64.5" x2="108" y2="64.5"/>
	<circle fill="none" stroke="#000000" stroke-width="2" stroke-miterlimit="10" cx="82.015" cy="64.189" r="30.5"/>
	<circle fill="none" stroke="#000000" stroke-miterlimit="10" cx="82.015" cy="64.189" r="26.5"/>
	<path fill="none" stroke="#000000" stroke-width="2" stroke-miterlimit="10" d="M103.737,85.594l9.074,8.113
		c0.294,0.26,0.562,0.554,0.758,0.895c1.986,3.456,1.002,7.913-2.348,10.193l-1.326,0.902c-3.35,2.28-7.857,1.559-10.343-1.556
		c-0.245-0.307-0.42-0.665-0.554-1.033l-4.101-11.396"/>
	<path opacity="0.15" fill="none" stroke="#000000" stroke-linecap="round" stroke-miterlimit="10" d="M111.559,96.788
		c0.552,2.447-0.309,5.012-2.385,6.425c-2.114,1.438-4.877,1.266-6.964-0.218"/>
	<g opacity="0.4">
		<g>
			<line fill="none" stroke="#000000" stroke-linecap="round" stroke-miterlimit="10" x1="14.5" y1="38" x2="14.5" y2="40"/>
			
				<line fill="none" stroke="#000000" stroke-linecap="round" stroke-miterlimit="10" stroke-dasharray="3,3" x1="14.5" y1="43" x2="14.5" y2="60"/>
			<line fill="none" stroke="#000000" stroke-linecap="round" stroke-miterlimit="10" x1="14.5" y1="61" x2="14.5" y2="63"/>
		</g>
	</g>
	<g opacity="0.4">
		<g>
			<line fill="none" stroke="#000000" stroke-linecap="round" stroke-miterlimit="10" x1="24.5" y1="46" x2="24.5" y2="48"/>
			
				<line fill="none" stroke="#000000" stroke-linecap="round" stroke-miterlimit="10" stroke-dasharray="3,3" x1="24.5" y1="50" x2="24.5" y2="60"/>
			<line fill="none" stroke="#000000" stroke-linecap="round" stroke-miterlimit="10" x1="24.5" y1="62" x2="24.5" y2="63"/>
		</g>
	</g>
	<g opacity="0.4">
		<g>
			<line fill="none" stroke="#000000" stroke-linecap="round" stroke-miterlimit="10" x1="34.5" y1="8" x2="34.5" y2="9"/>
			
				<line fill="none" stroke="#000000" stroke-linecap="round" stroke-miterlimit="10" stroke-dasharray="3,3" x1="34.5" y1="13" x2="34.5" y2="60"/>
			<line fill="none" stroke="#000000" stroke-linecap="round" stroke-miterlimit="10" x1="34.5" y1="61" x2="34.5" y2="63"/>
		</g>
	</g>
	<g opacity="0.4">
		<g>
			<line fill="none" stroke="#000000" stroke-linecap="round" stroke-miterlimit="10" x1="44.5" y1="34" x2="44.5" y2="35"/>
			
				<line fill="none" stroke="#000000" stroke-linecap="round" stroke-miterlimit="10" stroke-dasharray="3,3" x1="44.5" y1="38" x2="44.5" y2="60"/>
			<line fill="none" stroke="#000000" stroke-linecap="round" stroke-miterlimit="10" x1="44.5" y1="61" x2="44.5" y2="63"/>
		</g>
	</g>
	<g opacity="0.4">
		<g>
			<line fill="none" stroke="#000000" stroke-linecap="round" stroke-miterlimit="10" x1="66.5" y1="52" x2="66.5" y2="54"/>
			
				<line fill="none" stroke="#000000" stroke-linecap="round" stroke-miterlimit="10" stroke-dasharray="3,3" x1="66.5" y1="56" x2="66.5" y2="60"/>
			<line fill="none" stroke="#000000" stroke-linecap="round" stroke-miterlimit="10" x1="66.5" y1="62" x2="66.5" y2="63"/>
		</g>
	</g>
	<g opacity="0.4">
		<g>
			<line fill="none" stroke="#000000" stroke-linecap="round" stroke-miterlimit="10" x1="81.5" y1="41" x2="81.5" y2="42"/>
			
				<line fill="none" stroke="#000000" stroke-linecap="round" stroke-miterlimit="10" stroke-dasharray="3,3" x1="81.5" y1="45" x2="81.5" y2="60"/>
			<line fill="none" stroke="#000000" stroke-linecap="round" stroke-miterlimit="10" x1="81.5" y1="62" x2="81.5" y2="63"/>
		</g>
	</g>
	<g opacity="0.4">
		<g>
			<line fill="none" stroke="#000000" stroke-linecap="round" stroke-miterlimit="10" x1="96.5" y1="50" x2="96.5" y2="52"/>
			
				<line fill="none" stroke="#000000" stroke-linecap="round" stroke-miterlimit="10" stroke-dasharray="3,3" x1="96.5" y1="55" x2="96.5" y2="60"/>
			<line fill="none" stroke="#000000" stroke-linecap="round" stroke-miterlimit="10" x1="96.5" y1="61" x2="96.5" y2="63"/>
		</g>
	</g>
	<polyline fill="none" stroke="#000000" stroke-linecap="round" stroke-linejoin="round" stroke-miterlimit="10" points="
		5.833,64.5 14.5,37 24.437,44.75 35,6.5 44.875,33 58.125,44.875 	"/>
	<polyline fill="none" stroke="#000000" stroke-linecap="round" stroke-linejoin="round" stroke-miterlimit="10" points="
		61.75,47.5 66,51 81.5,40.083 96.5,48.75 100.5,45.583 	"/>
	<g opacity="0.2">
		<g>
			<line fill="none" stroke="#000000" stroke-linecap="round" stroke-miterlimit="10" x1="14.5" y1="66" x2="14.5" y2="68"/>
			
				<line fill="none" stroke="#000000" stroke-linecap="round" stroke-miterlimit="10" stroke-dasharray="3,3" x1="14.5" y1="70" x2="14.5" y2="99"/>
			<line fill="none" stroke="#000000" stroke-linecap="round" stroke-miterlimit="10" x1="14.5" y1="100" x2="14.5" y2="102"/>
		</g>
	</g>
	<g opacity="0.2">
		<g>
			<line fill="none" stroke="#000000" stroke-linecap="round" stroke-miterlimit="10" x1="24.5" y1="66" x2="24.5" y2="68"/>
			
				<line fill="none" stroke="#000000" stroke-linecap="round" stroke-miterlimit="10" stroke-dasharray="3,3" x1="24.5" y1="70" x2="24.5" y2="79"/>
			<line fill="none" stroke="#000000" stroke-linecap="round" stroke-miterlimit="10" x1="24.5" y1="81" x2="24.5" y2="82"/>
		</g>
	</g>
	<g opacity="0.2">
		<g>
			<line fill="none" stroke="#000000" stroke-linecap="round" stroke-miterlimit="10" x1="34.5" y1="66" x2="34.5" y2="68"/>
			
				<line fill="none" stroke="#000000" stroke-linecap="round" stroke-miterlimit="10" stroke-dasharray="3,3" x1="34.5" y1="71" x2="34.5" y2="75"/>
			<line fill="none" stroke="#000000" stroke-linecap="round" stroke-miterlimit="10" x1="34.5" y1="77" x2="34.5" y2="78"/>
		</g>
	</g>
	<g opacity="0.2">
		<g>
			<line fill="none" stroke="#000000" stroke-linecap="round" stroke-miterlimit="10" x1="44.5" y1="66" x2="44.5" y2="68"/>
			
				<line fill="none" stroke="#000000" stroke-linecap="round" stroke-miterlimit="10" stroke-dasharray="3,3" x1="44.5" y1="70" x2="44.5" y2="87"/>
			<line fill="none" stroke="#000000" stroke-linecap="round" stroke-miterlimit="10" x1="44.5" y1="88" x2="44.5" y2="90"/>
		</g>
	</g>
	<polyline fill="none" stroke="#000000" stroke-linecap="round" stroke-linejoin="round" stroke-miterlimit="10" points="6,64.75 
		14,104 24.5,83.25 34.25,79.75 44.5,91.5 60,86.25 	"/>
	<g opacity="0.4">
		<g>
			<line fill="none" stroke="#000000" stroke-linecap="round" stroke-miterlimit="10" x1="66.5" y1="66" x2="66.5" y2="67"/>
			
				<line fill="none" stroke="#000000" stroke-linecap="round" stroke-miterlimit="10" stroke-dasharray="3,3" x1="66.5" y1="70" x2="66.5" y2="81"/>
			<line fill="none" stroke="#000000" stroke-linecap="round" stroke-miterlimit="10" x1="66.5" y1="83" x2="66.5" y2="84"/>
		</g>
	</g>
	<g opacity="0.4">
		<g>
			<line fill="none" stroke="#000000" stroke-linecap="round" stroke-miterlimit="10" x1="81.5" y1="66" x2="81.5" y2="67"/>
			
				<line fill="none" stroke="#000000" stroke-linecap="round" stroke-miterlimit="10" stroke-dasharray="4,4" x1="81.5" y1="71" x2="81.5" y2="76"/>
			<line fill="none" stroke="#000000" stroke-linecap="round" stroke-miterlimit="10" x1="81.5" y1="78" x2="81.5" y2="80"/>
		</g>
	</g>
	<g opacity="0.4">
		<g>
			<line fill="none" stroke="#000000" stroke-linecap="round" stroke-miterlimit="10" x1="96.5" y1="66" x2="96.5" y2="67"/>
			
				<line fill="none" stroke="#000000" stroke-linecap="round" stroke-miterlimit="10" stroke-dasharray="3,3" x1="96.5" y1="70" x2="96.5" y2="75"/>
			<line fill="none" stroke="#000000" stroke-linecap="round" stroke-miterlimit="10" x1="96.5" y1="77" x2="96.5" y2="78"/>
		</g>
	</g>
	<polyline fill="none" stroke="#000000" stroke-linecap="round" stroke-linejoin="round" stroke-miterlimit="10" points="
		77.375,90.25 81.5,80.75 97,85.5 	"/>
</g>
</svg>
