<svg xmlns="http://www.w3.org/2000/svg" version="1.1" x="0" y="0" viewBox="0 0 75 75" enable-background="new 0 0 75 75" xml:space="preserve" xmlns:svg="http://www.w3.org/2000/svg" xmlns:xlink="http://www.w3.org/1999/xlink" width="100%" height="100%" preserveAspectRatio="xMidYMid meet"><defs id="svgEditorDefs"><text id="svgEditorTextDefs" fill="black" style="font-family: Arial; font-size: 20px;"/><line id="svgEditorLineDefs" stroke="black" style="fill: none; vector-effect: non-scaling-stroke; stroke-width: 1px;"/></defs><rect id="svgEditorBackground" x="0" y="0" width="75" height="75" style="fill: none; stroke: none;"/><style>
	.style0{
		stroke:	#F08C35;
		stroke-width:	2;
		stroke-miterlimit:	10;
		fill:	none;
	}
	.style1{
		fill:	#F08C35;
	}
	.style2{
		opacity:	0.8;
	}
	.style3{
		opacity:	0.5;
		fill:	#F6A926;
	}
	.style4{
		opacity:	0.3;
		fill:	#F6A926;
	}
</style><circle cx="37.9" cy="35.4" r="27.200000762939453" stroke="darkslateblue" fill="darkslateblue" class="style0" transform=""/><g class="style2"><path class="style1" id="e31_path" d="M 9.3 35.2 c 0 0 -0.3 0.0999985 -0.8 0.400002 c -0.5 0.299999 -1.2 0.700001 -2.1 1.3 c -0.4 0.299999 -0.9 0.700001 -1.3 1.1 c -0.4 0.400002 -0.8 1 -0.8 1.5 c -0.0999999 0.5 0.4 1.1 1.1 1.4 c 0.2 0.0999985 0.3 0.200001 0.5 0.299999 l 0.0999999 0.0999985 c 0 0 0.0999999 0 0.0999999 0 l 0.3 0.0999985 c 0.4 0.0999985 0.9 0.299999 1.3 0.299999 c 1.8 0.299999 3.8 0.5 5.9 0.599998 c 2.1 0.0999985 4.4 0.0999985 6.7 0.0999985 c 1.2 0 2.3 -0.0999985 3.5 -0.0999985 c 1.2 -0.0999985 2.4 -0.0999985 3.6 -0.200001 c 1.2 -0.0999985 2.4 -0.200001 3.7 -0.299999 c 1.2 -0.0999985 2.5 -0.200001 3.7 -0.400002 c 1.2 -0.200001 2.5 -0.299999 3.7 -0.5 c 1.2 -0.200001 2.4 -0.400002 3.6 -0.599998 c 1.2 -0.200001 2.4 -0.400002 3.5 -0.700001 c 1.2 -0.299999 2.3 -0.5 3.4 -0.799999 c 1.1 -0.299999 2.2 -0.599998 3.3 -0.900002 c 0.5 -0.0999985 1.1 -0.299999 1.6 -0.400002 c 0.5 -0.200001 1 -0.299999 1.5 -0.5 c 1 -0.299999 2 -0.599998 2.9 -1 c 0.900002 -0.299999 1.8 -0.700001 2.7 -1.1 c 0.900002 -0.299999 1.7 -0.700001 2.5 -1 c 0.800003 -0.400002 1.5 -0.700001 2.2 -1.1 c 0.699997 -0.299999 1.3 -0.599998 1.9 -0.899999 c 0.599998 -0.299999 1.1 -0.6 1.5 -0.899999 c 1.8 -1.1 2.9 -1.8 2.9 -1.8 s -1 0.700001 -2.9 1.8 c -0.5 0.299999 -0.900002 0.6 -1.5 0.899999 c -0.599998 0.300001 -1.2 0.6 -1.9 0.999998 c -0.699997 0.299999 -1.4 0.700001 -2.1 1.1 c -0.799999 0.299999 -1.6 0.700001 -2.5 1 c -0.900002 0.299999 -1.7 0.700001 -2.7 1.1 c -0.900002 0.299999 -1.9 0.700001 -2.9 1 c -0.5 0.200001 -1 0.299999 -1.5 0.5 c -0.5 0.200001 -1.1 0.299999 -1.6 0.5 c -1.1 0.299999 -2.2 0.599998 -3.3 0.900002 c -1.1 0.299999 -2.3 0.5 -3.4 0.799999 c -1.2 0.299999 -2.3 0.5 -3.6 0.700001 c -1.2 0.200001 -2.4 0.400002 -3.6 0.700001 c -1.2 0.200001 -2.5 0.299999 -3.7 0.5 c -1.2 0.200001 -2.5 0.299999 -3.7 0.400002 c -1.2 0.0999985 -2.5 0.299999 -3.7 0.299999 c -1.2 0.0999985 -2.4 0.200001 -3.6 0.200001 c -1.2 0 -2.4 0.0999985 -3.5 0.0999985 c -2.3 0 -4.6 0.0999985 -6.7 0 c -2.1 -0.0999985 -4.1 -0.299999 -6.1 -0.599998 c -0.5 -0.0999985 -0.9 -0.200001 -1.3 -0.299999 l -0.199998 0.400005 c -0.0999999 0 -0.0999999 0 -0.2 -0.0999985 l -0.2 -0.0999985 c -0.2 -0.0000038147 -0.400001 -0.100002 -0.6 -0.200005 c -0.4 -0.200001 -0.8 -0.5 -1.1 -0.900002 c -0.3 -0.400002 -0.5 -0.900002 -0.5 -1.4 c 0.0999999 -1 0.6 -1.6 1.1 -2.1 c 0.5 -0.5 1 -0.900002 1.4 -1.3 c 0.9 -0.700001 1.6 -1.1 2.2 -1.4 c 0.5 -0.299999 0.8 -0.400002 0.8 -0.400002 l 0.4 0.900005 Z" transform=""/></g><text x="21.1457" y="40.9499" id="e30_texte" style="font-family: 'Times New Roman'; font-size: 36px;" fill="#FF8300" transform="">D</text><text fill="#FF8000" x="30.9199" y="54.1738" id="e34_texte" style="font-family: 'Times New Roman'; font-size: 36px;" transform="">G</text></svg>