<?xml version="1.0" encoding="utf-8"?>
<!-- Generator: Adobe Illustrator 17.1.0, SVG Export Plug-In . SVG Version: 6.00 Build 0)  -->
<!DOCTYPE svg PUBLIC "-//W3C//DTD SVG 1.1//EN" "http://www.w3.org/Graphics/SVG/1.1/DTD/svg11.dtd">
<svg version="1.1" id="Layer_1" xmlns="http://www.w3.org/2000/svg" xmlns:xlink="http://www.w3.org/1999/xlink" x="0px" y="0px"
	 viewBox="0 0 120 120" enable-background="new 0 0 120 120" xml:space="preserve">
<g opacity="0.25">
	<g>
		<path fill="none" stroke="#000000" stroke-width="2" stroke-miterlimit="10" d="M63.917,94.906V102c0,3.314-2.59,6-5.786,6H15.702
			c-3.195,0-5.786-2.686-5.786-6V18c0-3.314,2.59-6,5.786-6h42.429c3.195,0,5.786,2.686,5.786,6v32.167"/>
		<line fill="none" stroke="#000000" stroke-width="2" stroke-miterlimit="10" x1="63.917" y1="67.75" x2="63.917" y2="83.344"/>
		<line fill="none" stroke="#000000" stroke-width="2" stroke-miterlimit="10" x1="63.917" y1="55.75" x2="63.917" y2="59.5"/>
		<polyline fill="none" stroke="#000000" stroke-miterlimit="10" points="60.06,93.726 13.774,93.726 13.774,22.774 60.06,22.774 
			60.06,47 		"/>
		<line fill="none" stroke="#000000" stroke-miterlimit="10" x1="60.06" y1="63.417" x2="60.06" y2="83.104"/>
		<line fill="none" stroke="#000000" stroke-miterlimit="10" x1="60.06" y1="50.563" x2="60.06" y2="56.729"/>
		
			<line fill="none" stroke="#000000" stroke-linecap="round" stroke-linejoin="round" stroke-miterlimit="10" x1="33" y1="18.5" x2="41" y2="18.5"/>
		<g>
			<circle fill="none" stroke="#000000" stroke-miterlimit="10" cx="36.917" cy="100.25" r="4.25"/>
		</g>
		
			<line fill="none" stroke="#000000" stroke-linecap="round" stroke-linejoin="round" stroke-miterlimit="10" x1="29" y1="18.5" x2="30" y2="18.5"/>
		
			<line opacity="0.5" fill="none" stroke="#000000" stroke-width="2" stroke-linecap="round" stroke-linejoin="round" stroke-miterlimit="10" x1="9" y1="27" x2="9" y2="33"/>
		
			<line opacity="0.5" fill="none" stroke="#000000" stroke-width="2" stroke-linecap="round" stroke-linejoin="round" stroke-miterlimit="10" x1="9" y1="37" x2="9" y2="41"/>
		
			<line opacity="0.5" fill="none" stroke="#000000" stroke-width="2" stroke-linecap="round" stroke-linejoin="round" stroke-miterlimit="10" x1="9" y1="44" x2="9" y2="48"/>
	</g>
	<path fill="none" stroke="#000000" stroke-width="2" stroke-linecap="round" stroke-linejoin="round" stroke-miterlimit="10" d="
		M80.683,34.473c30.693,20.864,20.763,43.833,20.763,43.833s8.727,9.83,5.216,18.456c0,0-3.611-6.018-9.629-6.018
		c-5.818,0-9.228,6.018-20.964,6.018c-26.079,0-38.417-21.766-38.417-21.766c23.482,15.473,39.52,4.514,39.52,4.514
		C66.58,73.357,44.072,44.002,44.072,44.002C63.69,60.689,72.157,65.067,72.157,65.067c-5.069-4.174-19.259-24.575-19.259-24.575
		C64.253,51.98,86.802,67.975,86.802,67.975C93.234,50.294,80.683,34.473,80.683,34.473z"/>
</g>
</svg>
