<?xml version="1.0" encoding="utf-8"?>
<!-- Generator: Adobe Illustrator 17.1.0, SVG Export Plug-In . SVG Version: 6.00 Build 0)  -->
<!DOCTYPE svg PUBLIC "-//W3C//DTD SVG 1.1//EN" "http://www.w3.org/Graphics/SVG/1.1/DTD/svg11.dtd">
<svg version="1.1" id="Layer_1" xmlns="http://www.w3.org/2000/svg" xmlns:xlink="http://www.w3.org/1999/xlink" x="0px" y="0px"
	 viewBox="0 0 120 120" enable-background="new 0 0 120 120" xml:space="preserve">
<g opacity="0.25">
	
		<polygon fill="none" stroke="#000000" stroke-width="2" stroke-linecap="round" stroke-linejoin="round" stroke-miterlimit="10" points="
		95.045,88 22.737,88 58.826,25.125 94.99,88 	"/>
	
		<line fill="none" stroke="#000000" stroke-linecap="round" stroke-linejoin="round" stroke-miterlimit="10" x1="33" y1="69.5" x2="85" y2="69.5"/>
	
		<line fill="none" stroke="#000000" stroke-linecap="round" stroke-linejoin="round" stroke-miterlimit="10" x1="45" y1="50.5" x2="73" y2="50.5"/>
	<g>
		<path d="M12.772,98.651c-0.892-1.551-1.336-3.965-1.336-7.24V77.448c0-3.504-0.403-6.45-1.207-8.835
			c-0.805-2.384-2.471-4.409-4.999-6.077v-1.724c0.976-0.172,1.838-0.69,2.586-1.551c0.746-0.862,1.393-1.953,1.939-3.275
			c0.545-1.321,0.962-2.815,1.25-4.482c0.287-1.666,0.431-3.361,0.431-5.085V32.197c0-3.275,0.444-5.659,1.336-7.154
			c0.89-1.494,2.543-2.241,4.956-2.241h4.31v1.724h-4.137c-1.724,0-2.945,0.646-3.663,1.939c-0.719,1.293-1.077,3.721-1.077,7.283
			v14.136c0,1.265-0.116,2.615-0.345,4.051c-0.23,1.437-0.603,2.816-1.12,4.137c-0.517,1.322-1.164,2.5-1.939,3.534
			s-1.71,1.782-2.801,2.241c1.896,0.92,3.405,2.687,4.525,5.301c1.121,2.615,1.681,5.559,1.681,8.835v13.877
			c0,1.896,0.1,3.461,0.302,4.697c0.201,1.235,0.487,2.198,0.862,2.888c0.373,0.69,0.862,1.164,1.465,1.422
			c0.603,0.259,1.306,0.388,2.112,0.388h4.137v1.724h-4.31C15.315,100.978,13.662,100.202,12.772,98.651z"/>
		<path d="M107.324,25.129c0.89,1.551,1.336,3.965,1.336,7.24v14.049c0,3.506,0.401,6.464,1.207,8.878
			c0.804,2.413,2.47,4.425,4.999,6.033v1.724c-0.92,0.172-1.767,0.69-2.543,1.551c-0.776,0.862-1.437,1.954-1.982,3.275
			c-0.547,1.323-0.963,2.816-1.25,4.482c-0.288,1.667-0.431,3.361-0.431,5.085v14.136c0,3.275-0.446,5.659-1.336,7.154
			c-0.891,1.494-2.543,2.241-4.956,2.241h-4.31v-1.724h4.137c1.724,0,2.944-0.646,3.663-1.939c0.718-1.293,1.077-3.721,1.077-7.283
			V75.982c0-1.263,0.114-2.614,0.345-4.051c0.229-1.436,0.603-2.815,1.12-4.137c0.517-1.321,1.164-2.5,1.939-3.534
			c0.776-1.034,1.709-1.78,2.801-2.241c-1.896-0.918-3.404-2.685-4.525-5.301c-1.12-2.614-1.681-5.559-1.681-8.835V33.92
			c0-1.896-0.101-3.461-0.302-4.697c-0.202-1.235-0.489-2.198-0.862-2.887c-0.374-0.69-0.862-1.164-1.465-1.422
			s-1.308-0.388-2.112-0.388h-4.137v-1.724h4.31C104.781,22.802,106.432,23.577,107.324,25.129z"/>
	</g>
</g>
</svg>
