<?xml version="1.0" encoding="utf-8"?>
<!-- Generator: Adobe Illustrator 18.1.0, SVG Export Plug-In . SVG Version: 6.00 Build 0)  -->
<!DOCTYPE svg PUBLIC "-//W3C//DTD SVG 1.1//EN" "http://www.w3.org/Graphics/SVG/1.1/DTD/svg11.dtd">
<svg version="1.1" id="Layer_1" xmlns="http://www.w3.org/2000/svg" xmlns:xlink="http://www.w3.org/1999/xlink" x="0px" y="0px"
	 viewBox="0 0 75 75" enable-background="new 0 0 75 75" xml:space="preserve">
<rect x="7.1" y="9.9" fill="#CCCCCC" width="47.5" height="11.5"/>
<g>
	<defs>
		<rect id="SVGID_1_" x="-1237.7" y="446.4" width="1089.6" height="671.1"/>
	</defs>
	<clipPath id="SVGID_2_">
		<use xlink:href="#SVGID_1_"  overflow="visible"/>
	</clipPath>
	<g opacity="0.5" clip-path="url(#SVGID_2_)">
		<g>
			<g>
				<path fill="#FFFFFF" d="M214-38.2c22.6,0,41,18.4,41,41v706c0,22.6-18.4,41-41,41H-75.7c-22.6,0-41-18.4-41-41V2.8
					c0-22.6,18.4-41,41-41H214 M214-42.2H-75.7c-24.8,0-45,20.2-45,45v706c0,24.8,20.2,45,45,45H214c24.8,0,45-20.2,45-45V2.8
					C259-22,238.7-42.2,214-42.2L214-42.2z"/>
			</g>
			<g>
				<path fill="#FFFFFF" d="M207.6-30.8c22,0,40,18,40,40v693.1c0,22-18,40-40,40H-68.2c-22,0-40-18-40-40V9.2c0-22,18-40,40-40
					H207.6 M207.6-32.8H-68.2c-23.2,0-42,18.8-42,42v693.1c0,23.2,18.8,42,42,42h275.8c23.2,0,42-18.8,42-42V9.2
					C249.6-14,230.8-32.8,207.6-32.8L207.6-32.8z"/>
			</g>

				<rect x="-92.1" y="68.9" fill="none" stroke="#FFFFFF" stroke-width="2.007" stroke-miterlimit="10" width="322.6" height="573.5"/>
			<path fill="none" stroke="#FFFFFF" stroke-width="2.1493" stroke-miterlimit="10" d="M96.8,33.3H41.5c-3,0-5.4-2.4-5.4-5.4v0
				c0-3,2.4-5.4,5.4-5.4h55.3c3,0,5.4,2.4,5.4,5.4v0C102.2,30.9,99.8,33.3,96.8,33.3z"/>
			<g>
				<path fill="#FFFFFF" d="M69.1-13.2c3.2,0,5.8,2.6,5.8,5.8s-2.6,5.8-5.8,5.8s-5.8-2.6-5.8-5.8S65.9-13.2,69.1-13.2 M69.1-15.4
					c-4.4,0-7.9,3.6-7.9,7.9c0,4.4,3.6,7.9,7.9,7.9s7.9-3.6,7.9-7.9C77.1-11.8,73.5-15.4,69.1-15.4L69.1-15.4z"/>
			</g>
			<g>
				<path fill="#999999" d="M14.1,33c-2.4,0-4.3-1.9-4.3-4.3c0-2.4,1.9-4.3,4.3-4.3s4.3,1.9,4.3,4.3C18.5,31,16.5,33,14.1,33z"/>
				<path fill="#FFFFFF" d="M14.1,24.8c2.1,0,3.8,1.7,3.8,3.8s-1.7,3.8-3.8,3.8s-3.8-1.7-3.8-3.8S12,24.8,14.1,24.8 M14.1,23.8
					c-2.7,0-4.8,2.2-4.8,4.8s2.2,4.8,4.8,4.8s4.8-2.2,4.8-4.8S16.8,23.8,14.1,23.8L14.1,23.8z"/>
			</g>
		</g>
	</g>
</g>
<circle fill="none" stroke="#565A5B" stroke-width="2.1638" stroke-miterlimit="10" cx="52.8" cy="50.4" r="16.8"/>
<polyline fill="none" stroke="#F18D35" stroke-linecap="round" stroke-linejoin="round" stroke-miterlimit="10" points="58.4,56.8
	52.8,51.2 52.8,39.4 "/>
<line fill="none" stroke="#565A5B" stroke-miterlimit="10" x1="15.8" y1="20.4" x2="15.8" y2="55.4"/>
<line fill="none" stroke="#565A5B" stroke-miterlimit="10" x1="25.8" y1="20.4" x2="25.8" y2="55.4"/>
<line fill="none" stroke="#565A5B" stroke-miterlimit="10" x1="35.8" y1="20.4" x2="35.8" y2="47.4"/>
<line fill="none" stroke="#565A5B" stroke-miterlimit="10" x1="45.8" y1="20.4" x2="45.8" y2="34.4"/>
<line fill="none" stroke="#565A5B" stroke-miterlimit="10" x1="8.3" y1="29.9" x2="54.3" y2="29.9"/>
<line fill="none" stroke="#565A5B" stroke-miterlimit="10" x1="8.3" y1="37.9" x2="41.3" y2="37.9"/>
<line fill="none" stroke="#565A5B" stroke-miterlimit="10" x1="8.3" y1="46.9" x2="36.3" y2="46.9"/>
<line fill="none" stroke="#565A5B" stroke-width="2" stroke-miterlimit="10" x1="7.3" y1="21.4" x2="54.3" y2="21.4"/>
<polyline fill="none" stroke="#565A5B" stroke-width="2.1638" stroke-miterlimit="10" points="36.6,55.3 7.1,55.3 7.1,9.9 54.5,9.9
	54.5,34.2 "/>
</svg>
