<?xml version="1.0" encoding="utf-8"?>
<!-- Generator: Adobe Illustrator 18.1.0, SVG Export Plug-In . SVG Version: 6.00 Build 0)  -->
<!DOCTYPE svg PUBLIC "-//W3C//DTD SVG 1.1//EN" "http://www.w3.org/Graphics/SVG/1.1/DTD/svg11.dtd">
<svg version="1.1" id="Layer_1" xmlns="http://www.w3.org/2000/svg" xmlns:xlink="http://www.w3.org/1999/xlink" x="0px" y="0px"
	 viewBox="0 0 75 75" enable-background="new 0 0 75 75" xml:space="preserve">
<g>
	<defs>
		<rect id="SVGID_1_" x="-1388" y="447" width="1089.6" height="671.1"/>
	</defs>
	<clipPath id="SVGID_2_">
		<use xlink:href="#SVGID_1_"  overflow="visible"/>
	</clipPath>
	<g opacity="0.5" clip-path="url(#SVGID_2_)">
		<g>
			<g>
				<path fill="#FFFFFF" d="M63.7-37.6c22.6,0,41,18.4,41,41v706c0,22.6-18.4,41-41,41h-289.7c-22.6,0-41-18.4-41-41V3.4
					c0-22.6,18.4-41,41-41H63.7 M63.7-41.6h-289.7c-24.8,0-45,20.2-45,45v706c0,24.8,20.2,45,45,45H63.7c24.8,0,45-20.2,45-45V3.4
					C108.7-21.4,88.4-41.6,63.7-41.6L63.7-41.6z"/>
			</g>
			<g>
				<path fill="#FFFFFF" d="M57.3-30.2c22,0,40,18,40,40v693.1c0,22-18,40-40,40h-275.8c-22,0-40-18-40-40V9.8c0-22,18-40,40-40
					H57.3 M57.3-32.2h-275.8c-23.2,0-42,18.8-42,42v693.1c0,23.2,18.8,42,42,42H57.3c23.2,0,42-18.8,42-42V9.8
					C99.3-13.4,80.4-32.2,57.3-32.2L57.3-32.2z"/>
			</g>

				<rect x="-242.4" y="69.5" fill="none" stroke="#FFFFFF" stroke-width="2.007" stroke-miterlimit="10" width="322.6" height="573.5"/>
		</g>
	</g>
</g>
<g>
	<path fill="none" stroke="#565A5B" stroke-width="1.9733" stroke-miterlimit="10" d="M65.8,51.8H8.7c-0.5,0-0.9-0.4-0.9-0.9V11.3
		c0-0.5,0.4-0.9,0.9-0.9h57.1c0.5,0,0.9,0.4,0.9,0.9v39.7C66.6,51.4,66.3,51.8,65.8,51.8z"/>
	<path fill="none" stroke="#565A5B" stroke-width="1.9733" stroke-miterlimit="10" d="M66.9,51.8H8.1c-0.2,0-6.6,9.3-6.6,9.3
		c0,0.2,0,1.3,0.3,1.3h71.4c0.3,0,0.3-1.1,0.3-1.3C73.5,61.1,67.1,51.8,66.9,51.8z"/>
	<rect x="11.4" y="12.9" fill="none" stroke="#565A5B" stroke-width="0.9867" stroke-miterlimit="10" width="51.6" height="36.7"/>
</g>
<rect x="14.6" y="17.1" fill="#CCCCCC" width="14" height="12"/>
<rect x="30.2" y="17.1" fill="#CCCCCC" width="14" height="12"/>
<rect x="45.8" y="17.1" fill="#CCCCCC" width="14" height="12"/>
<rect x="14.6" y="30.5" fill="#CCCCCC" width="14" height="12"/>
<rect x="30.2" y="30.5" fill="#CCCCCC" width="14" height="12"/>
<rect x="45.8" y="30.5" fill="#F18D35" width="14" height="12"/>
<polygon fill="#FFFFFF" points="52.8,32.5 53.6,35 56.3,35 54.1,36.7 54.9,39.3 52.8,37.8 50.7,39.4 51.5,36.7 49.4,35 52,35 "/>
</svg>
