<?xml version="1.0" encoding="utf-8"?>
<!-- Generator: Adobe Illustrator 18.1.0, SVG Export Plug-In . SVG Version: 6.00 Build 0)  -->
<!DOCTYPE svg PUBLIC "-//W3C//DTD SVG 1.1//EN" "http://www.w3.org/Graphics/SVG/1.1/DTD/svg11.dtd">
<svg version="1.1" id="Layer_1" xmlns="http://www.w3.org/2000/svg" xmlns:xlink="http://www.w3.org/1999/xlink" x="0px" y="0px"
	 viewBox="0 0 75 75" enable-background="new 0 0 75 75" xml:space="preserve">
<g>
	<path fill="#CCCCCC" stroke="#565A5B" stroke-width="1.1916" stroke-linejoin="round" stroke-miterlimit="10" d="M23.2,38.2
		c-0.7-0.2-1.5,1.3-2.1,1.4c-0.1-0.4-0.9-1.9-1.3-1.9c-0.5,0-0.9,0.2-1.5,0.7c0.4-1.2,0.7-3.3,0.8-4.4c-0.7,0.2-1.9,0.9-1.9,0.9
		c0.7-2.1,1.2-10.9,3.3-14.4c2.6-4.4,8.5-5.2,11.4-5.2c1.7,0,4.9,1.5,4.9,1.5s2.6-0.5,3.5-0.2c2.4,0.8,2.8,1.8,3.4,2.8
		c1,1.5,1.6,9.1,3,15.5c0,0-2.5-0.6-2.7,0c-0.2,0.6-0.2,2.1,0.3,2.5c-0.6,0.2-1.7,0-2,0.7c-0.2,0.7,0.2,2.2,0.2,2.2l-2-2.1"/>
	<g>
		<defs>
			<circle id="SVGID_3_" cx="31.8" cy="36.9" r="29.3"/>
		</defs>
		<clipPath id="SVGID_2_">
			<use xlink:href="#SVGID_3_"  overflow="visible"/>
		</clipPath>
		<path clip-path="url(#SVGID_2_)" fill="none" stroke="#565A5B" stroke-width="1.1916" stroke-miterlimit="10" d="M27,44.7
			c-1.5,1.4-4.3,3.5-7.6,4.1c-5,0.9-13.2,3.8-15.1,11.1c-1.9,7.3,28.6,10.9,28.6,10.9s28.8-4.1,26.9-11.4
			c-1.9-7.3-10.1-9.8-15.1-10.6c-3.5-0.6-6.4-2.9-7.8-4.3"/>

			<path clip-path="url(#SVGID_2_)" fill="#FFFFFF" stroke="#565A5B" stroke-width="1.1916" stroke-linejoin="round" stroke-miterlimit="10" d="
			M41.8,30.1c0.1-0.1,0.2-0.1,0.3-0.1c0.6,0.1,0.8,1.4,0.6,2.9c-0.2,1.5-0.9,2.6-1.4,2.5c-0.1,0-0.1,0-0.2-0.1
			c-0.6,6.7-5.7,11.9-9.2,11.9c-3.8,0-8.6-5.2-9.2-11.8c-0.5,0-1.2-1.1-1.4-2.5c-0.2-1.5,0-2.8,0.6-2.9c0.1,0,0.3,0,0.4,0.1
			c1.1-0.3,7.2-2.8,10.6-2.9c0.3,0,1.3-1,1.4-1.9c0.5,0,0.4,2,0.6,2.1c1.7-1.5,2.7-2.2,2.4-5.1c1.1,2.5,1.2,4.5,2.1,5.1L41.8,30.1z"
			/>
		<use xlink:href="#SVGID_3_"  overflow="visible" fill="none" stroke="#565A5B" stroke-width="2.3833" stroke-miterlimit="10"/>
	</g>
	<circle fill="none" stroke="#565A5B" stroke-width="2.3833" stroke-miterlimit="10" cx="31.8" cy="36.9" r="29.3"/>
	<path fill="none" stroke="#565A5B" stroke-width="1.1916" stroke-miterlimit="10" d="M29.8,41.9c1.3,0.3,3.5,0.2,4.1,0.1
		s1.9-0.5,1.9-1"/>
</g>
<circle fill="#FFFFFF" stroke="#565A5B" stroke-width="1.1916" stroke-miterlimit="10" cx="57.1" cy="51.1" r="15.9"/>
<g>
	<polygon fill="#F18D35" points="63,48.5 59.1,50.9 63,56.1 	"/>
	<polygon fill="#F18D35" points="50,48.5 50,56.2 53.8,50.8 	"/>
	<polygon fill="#F18D35" points="56.5,52.5 55,51.1 55,51 50,56.2 63,56.1 58,51.1 	"/>
	<polygon fill="#F18D35" points="63,47.3 63,45 50,45 50,45.7 50,47.3 56.5,51.3 	"/>
</g>
</svg>
