
<svg xmlns="http://www.w3.org/2000/svg" viewBox="0 0 175 175"><path fill="none" stroke="#A0C9E0" stroke-width=".987" stroke-miterlimit="10" d="M119 56.5c-.4 0-.7.1-.9.4-.3-.2-.6-.4-.9-.4s-.7.1-.9.4c-.3-.2-.6-.4-.9-.4-.4 0-.7.1-.9.4-.3-.2-.6-.4-.9-.4-.8 0-1.4.6-1.4 1.4s.6 1.4 1.4 1.4c.4 0 .7-.1.9-.4.3.2.6.4.9.4.4 0 .7-.1.9-.4.3.2.6.4.9.4s.7-.1.9-.4c.3.2.6.4.9.4.8 0 1.4-.6 1.4-1.4s-.6-1.4-1.4-1.4zM131.4 56.5c-.4 0-.7.1-.9.4-.3-.2-.6-.4-.9-.4-.4 0-.7.1-.9.4-.3-.2-.6-.4-.9-.4s-.7.1-.9.4c-.3-.2-.6-.4-.9-.4-.8 0-1.4.6-1.4 1.4s.6 1.4 1.4 1.4c.4 0 .7-.1.9-.4.3.2.6.4.9.4s.7-.1.9-.4c.3.2.6.4.9.4.4 0 .7-.1.9-.4.3.2.6.4.9.4.8 0 1.4-.6 1.4-1.4s-.6-1.4-1.4-1.4zM142.7 56.5c-.4 0-.7.1-.9.4-.3-.2-.6-.4-.9-.4s-.7.1-.9.4c-.3-.2-.6-.4-.9-.4s-.7.1-.9.4c-.3-.2-.6-.4-.9-.4-.8 0-1.4.6-1.4 1.4s.6 1.4 1.4 1.4c.4 0 .7-.1.9-.4.3.2.6.4.9.4s.7-.1.9-.4c.3.2.6.4.9.4s.7-.1.9-.4c.3.2.6.4.9.4.8 0 1.4-.6 1.4-1.4s-.6-1.4-1.4-1.4zM153.1 56.5c-.4 0-.7.1-.9.4-.3-.2-.6-.4-.9-.4s-.7.1-.9.4c-.3-.2-.6-.4-.9-.4s-.7.1-.9.4c-.3-.2-.6-.4-.9-.4-.8 0-1.4.6-1.4 1.4s.6 1.4 1.4 1.4c.4 0 .7-.1.9-.4.3.2.6.4.9.4s.7-.1.9-.4c.3.2.6.4.9.4s.7-.1.9-.4c.3.2.6.4.9.4.8 0 1.4-.6 1.4-1.4s-.6-1.4-1.4-1.4z"/><path opacity=".2" fill="none" stroke="#3F6689" stroke-width="4" stroke-linejoin="round" stroke-miterlimit="10" d="M48.5 158.5l4.2-67.9-.3-30.9"/><path fill="none" stroke="#3F6689" stroke-width="2" stroke-miterlimit="10" d="M54.9 58l-35 8.4.3 92.1h34.3"/><path fill="#CCE7F2" d="M32.3 88.2H25V68.8l7.3-1.2M43 88.2h-7.2V66.4l7.2-1.2M25 90.6h7.3V110H25zM35.8 90.6h7.3V110h-7.3zM25 112.4h7.3v19.4H25zM35.8 112.4h7.3v19.4h-7.3zM25 134.2h7.3v19.4H25zM35.8 134.2h7.3v19.4h-7.3z"/><path fill="none" stroke="#3F6689" stroke-width="2" stroke-linejoin="round" stroke-miterlimit="10" d="M78.9 158.5H50.5l4.2-67.9-.6-49.6h6.2l5-30.3 5 30.3h6.2l-.1 33.3"/><path fill="none" stroke="#3F6689" stroke-width="2" stroke-miterlimit="10" d="M114.5 74.5h-40v84h40"/><path fill="none" stroke="#3F6689" stroke-miterlimit="10" d="M93 72h11v2H93zM111 60h10v3h-10z"/><path fill="none" stroke="#3F6689" stroke-width="2" stroke-miterlimit="10" d="M114.5 71.5v87h37v-87"/><path fill="none" stroke="#3F6689" stroke-miterlimit="10" d="M123 60h10v3h-10zM135 60h9v3h-9zM146 60h9v3h-9z"/><path fill="none" stroke="#3F6689" stroke-width="2" stroke-miterlimit="10" d="M109.5 63.5h46v8h-46z"/><path fill="none" stroke="#3F6689" stroke-miterlimit="10" d="M120 77h26v12h-26zM120 94h26v10h-26zM120 110h26v11h-26zM120 126h26v11h-26zM120 142h26v11h-26z"/><path opacity=".2" fill="none" stroke="#3F6689" stroke-width="2" stroke-linejoin="round" stroke-miterlimit="10" d="M72.5 73.5v85M112.5 73.5v85M115.5 72.5h35"/><g fill="none" stroke="#BECCD3" stroke-miterlimit="10" stroke-dasharray="2,2"><path d="M58.5 48h14M58.5 52h14M58.5 57h14M58.5 62h14M58.5 67h14M58.5 72h14M58.5 77h14M58.5 81h14M58.5 86h14M58.5 91h14M58.5 96h14M58.5 101h14M58.5 106h14M58.5 110h14M58.5 115h14M58.5 120h14M58.5 125h14M58.5 130h14M58.5 135h14M58.5 140h14M58.5 144h14M58.5 149h14M58.5 154h14"/></g><path fill="none" stroke="#A0C9E0" stroke-miterlimit="10" d="M83.9 80.3c1.5 1.5 1.5 4.1 0 5.6M94.3 80.3c1.5 1.5 1.5 4.1 0 5.6M83.9 96c1.5 1.5 1.5 4.1 0 5.6M94.3 96c1.5 1.5 1.5 4.1 0 5.6M83.9 111.7c1.5 1.5 1.5 4.1 0 5.6M94.3 111.7c1.5 1.5 1.5 4.1 0 5.6M83.9 127.5c1.5 1.5 1.5 4.1 0 5.6M94.3 127.5c1.5 1.5 1.5 4.1 0 5.6M83.9 143.2c1.5 1.5 1.5 4.1 0 5.6M94.3 143.2c1.5 1.5 1.5 4.1 0 5.6M104 80.3c1.5 1.5 1.5 4.1 0 5.6M104 96c1.5 1.5 1.5 4.1 0 5.6M104 111.7c1.5 1.5 1.5 4.1 0 5.6M104 127.5c1.5 1.5 1.5 4.1 0 5.6M104 143.2c1.5 1.5 1.5 4.1 0 5.6"/></svg>