
<svg xmlns="http://www.w3.org/2000/svg" viewBox="0 0 144 144"><g fill="none" stroke="#BECCD3" stroke-miterlimit="10"><path d="M47.5 129.9h.8"/><path stroke-dasharray="2.0048,2.0048" d="M49.9 129.8c46.9-.4 65.5-5.9 65.5-22 0-19.7-35.8-15.1-38.3-26.7-2.4-11.4 30.8-3.7 22.1-32.6"/><path d="M99 47.7c-.1-.2-.2-.5-.2-.8"/></g><path fill="#CCE7F2" d="M50.7 80.2l2-3.5 3.9-5.8 3.3-1.2L65 56.4l4.9-12 10.4-10.2 6.4-9.8 4.6-6.7-4.9 9.8V31l-3.8 5 1.3 3-2.1 4.6-.6 3.9-8.5 17s-2.1 8.3-2.8 8.6c-.7.2-15.6 10.9-15.6 10.9l-3.6-3.8z"/><path fill="none" stroke="#3F6689" stroke-width="2" stroke-linecap="round" stroke-miterlimit="10" d="M22.1 121h113.7l-1.8-11-7.6-9.8-8.6-29.6-2.1-6.8-1.1-7.4-5-7.4-6-12.1v-3.2l-9.2-14-3.4-1.6-4.5 6.5-6.2 9.6-10.4 10.2-4.8 12-5.2 13.4-3.2 1.2-6 9.2"/><g stroke="#3F6689" stroke-width="2" stroke-miterlimit="10"><circle fill="#FFF" cx="98.9" cy="14.6" r="2.4"/><path fill="#FFF" stroke-linecap="round" d="M98.9 18.3c4.4 4.4 15.6-4.9 22 .4l-3.2 5.7s3.2 4.6 3.2 7.1c-6.7-3.9-17.1 4.7-22-.2"/><path fill="none" stroke-linecap="round" d="M98.9 17v27.5"/></g><path fill="none" stroke="#3F6689" stroke-miterlimit="10" d="M104.5 24.8l3.5 3 5.7-6.7"/><path fill="#CCE7F2" d="M8.8 114.3L24.3 80l4.8-4.5 7.8-25.2 5.1-9.2 4.1-3.2-4.8 11.7-1.7 16.7-3 15.1-8.7 7.8v5.4l-7.4 12.5"/><path fill="none" stroke="#3F6689" stroke-width="2" stroke-miterlimit="10" d="M66.5 54.3l-3.7-5.9-3.4-3.9-3.3 3.6-3.4-3.2-6.6-7-4.1 3.2-5.1 9.2-7.8 25.2-4.8 4.5-15.5 34.3-.4 6.7h13.7"/></svg>