
<svg xmlns="http://www.w3.org/2000/svg" viewBox="0 0 175 175"><path fill="#CCE7F2" d="M149 110.9l-64.7 37.4 3.5 6.1c1.1 1.9 3.6 2.6 5.5 1.5l57.8-33.4c1.9-1.1 2.6-3.6 1.5-5.5l-3.6-6.1z"/><path fill="none" stroke="#3F6689" stroke-width="2" stroke-miterlimit="10" d="M69.5 30.7l21.2-12.3c2.4-1.4 5.5-.6 6.8 1.8l55.7 96.4c1.4 2.4.6 5.5-1.8 6.8L94 156.7c-2.4 1.4-5.5.6-6.8-1.8L31.5 58.4c-1.4-2.4-.5-5.4 1.9-6.8l23-13.3"/><path fill="none" stroke="#3F6689" stroke-width="1.1919761599999998" stroke-linejoin="round" stroke-miterlimit="10" d="M48.3 24.84l12.903-7.45 10.8 18.707-12.903 7.45z"/><circle fill="none" stroke="#3F6689" stroke-miterlimit="10" cx="58.9" cy="28.5" r="3.2"/><g stroke="#3F6689" stroke-miterlimit="10"><path fill="#CCE7F2" stroke-linejoin="round" d="M95.9 112.7c-.8.2-.7 2-1.2 2.5-.3-.3-1.9-1.3-2.3-1-.4.3-.8.8-1 1.5-.3-1.3-1.1-3.5-1.7-4.6-.5.6-1.3 1.9-1.3 1.9-.5-2.4-4.9-11-4.9-15.4 0-5.5 5.1-9.6 7.8-11.2 1.6-1 5.5-1.3 5.5-1.3s2.2-1.9 3.2-2.2c2.7-.6 3.6.2 4.7.7 1.8.9 6.6 7.7 11.5 13 0 0-2.6.8-2.5 1.5.1.7 1 2.1 1.7 2.2-.5.6-1.6 1-1.5 1.8.2.8 1.4 2 1.4 2l-3-.8"/><path fill="none" d="M139.6 116.4c-7.3-14.6-12.4-7.7-17.6-5.7-3.6 1.4-4.3 17.2-5.9 18.1-1.6 1-15.1-6.5-17.9-4.1-4 3.6-9.8 5.3-3.6 17.7"/><path fill="#FFF" stroke-linejoin="round" d="M108.9 94.7c.1-.1.2-.2.3-.2.6-.2 1.6.9 2.2 2.4.6 1.5.6 2.9 0 3.1h-.2c3.2 6.6 1.3 14.4-2.1 16.3-3.6 2.1-11-.1-15.2-6-.5.3-1.7-.4-2.7-1.6-1.1-1.3-1.5-2.6-1.1-3.1.1-.1.2-.2.5-.1.8-.9 5.2-6.6 8.4-8.6.3-.2.7-1.6.3-2.6.5-.2 1.5 1.7 1.8 1.7.7-2.3 1.3-3.6-.6-6.2 2.4 1.7 3.6 3.6 4.9 3.7l3.5 1.2z"/><path fill="none" stroke-linecap="round" d="M99.9 124.3c4-3 4.1-5 3.1-7M120.1 112.5c-4.5 2-6.6 1.5-7.9-.3"/><path fill="none" d="M104.1 112.4c1.4-.4 3.4-1.7 4-2.2.6-.5 1.5-1.6 1.2-2"/></g><path fill="none" stroke="#3F6689" stroke-miterlimit="10" d="M72 35.2l2.2-1.3c.6-.4 1.4-.1 1.8.5.4.6.1 1.4-.5 1.8L57 47c-.6.4-1.4.1-1.8-.5-.4-.6-.1-1.4.5-1.8l2.5-1.5"/><text transform="rotate(-30.003 176.39 -93.897)" fill="#3F6689" font-family="'WhitneySSm-Light'" font-size="12">Jane</text><path fill="none" stroke="#BECCD3" stroke-miterlimit="10" stroke-dasharray="2,2" d="M62.5 86.9l43.3-25"/><path fill="none" stroke="#3F6689" stroke-width="2" stroke-linejoin="round" stroke-miterlimit="10" d="M86 156.1l-56-97" opacity=".2"/></svg>