
<svg xmlns="http://www.w3.org/2000/svg" viewBox="-16 -6 100 100"  xmlns:xlink="http://www.w3.org/1999/xlink" width="100%" height="100%" preserveAspectRatio="xMidYMid meet"><rect id="svgEditorBackground" x="0" y="0" width="65" height="87" style="fill: none; stroke: none;"/><path opacity=".2" fill="none" stroke="#3F6689" stroke-width="2" stroke-linecap="round" stroke-linejoin="round" stroke-miterlimit="10" d="M59 79h1"/><path fill="none" stroke="#3F6689" stroke-width="2" stroke-linecap="round" stroke-miterlimit="10" d="M58.2 58.2V42.6c0-1.2-.9-2.1-2.1-2.1H7c-1.4 0-3.1-.7-3.4-2.1"/><path fill="none" stroke="#3F6689" stroke-width="2" stroke-linecap="round" stroke-miterlimit="10" d="M7.4 36.2c-2.9 0-4.9 2.4-4.9 5.3v36.2c0 2.9 2.4 5.3 5.3 5.3h48.3c1.2 0 2.1-.9 2.1-2.1V67.3"/><path fill="none" stroke="#3F6689" stroke-width="2" stroke-miterlimit="10" d="M60.9 56.9V38.3c0-1.2-.9-2.1-2.1-2.1h-4.9M58.8 78.8c1.2 0 2.1-.9 2.1-2.1V64.2"/><path opacity=".6" fill="none" stroke="#3F6689" stroke-linejoin="round" stroke-miterlimit="10" stroke-dasharray="3" d="M53.6 66.7v11.5H7.8M8.4 44.8h45.2v13.9"/><path opacity=".2" fill="none" stroke="#3F6689" stroke-width="2" stroke-linecap="round" stroke-linejoin="round" stroke-miterlimit="10" d="M7 84h50M48 68h11M54 37h6"/><path fill="none" stroke="#3F6689" stroke-miterlimit="10" d="M9.199999809265137,38l-1,-1c-0.19999980926513672,-0.20000076293945312,-0.19999980926513672,-0.5,0,-0.7000007629394531l34.70000076293945,-34.89999771118164c0.20000076293945312,-0.20000004768371582,0.5,-0.20000004768371582,0.7000007629394531,0l18.5,18.5c0.20000076293945312,0.20000076293945312,0.20000076293945312,0.5,0,0.7000007629394531l-1.5999984741210938,1.6000003814697266"/><path fill="none" stroke="#3F6689" stroke-linejoin="bevel" stroke-miterlimit="10" d="M7.699999809265137,39.5l34.70000076293945,-34.70000076293945c0.20000076293945312,-0.19999980926513672,0.5,-0.19999980926513672,0.7000007629394531,0l18.5,18.5c0.20000076293945312,0.20000076293945312,0.20000076293945312,0.5,0,0.7000007629394531l-1.2000007629394531,1.2000007629394531"/><path fill="none" stroke="#3F6689" stroke-miterlimit="10" d="M42.9 8.7c.2-.2.5-.2.7 0l18.5 18.5c.2.2.2.5 0 .7"/><path opacity=".6" fill="none" stroke="#3F6689" stroke-linejoin="round" stroke-miterlimit="10" d="M47.6 12.7c-2.4 2.4-6.2 2.4-8.6 0l4.2-4.2 4.4 4.2zM58.2 31.9c-2.4-2.4-2.4-6.2 0-8.6M29.7 40.4c-2.9-3.5-3.2-8.1-.6-10.7 2.8-2.8 8-2.2 11.6 1.3 2.9 2.9 3.8 6.8 2.6 9.7"/><path fill="#3F6689" d="M39.4 40.5l-1-1c-.6.5-1.3.9-1.9 1l-.4-.9c.6-.1 1.2-.4 1.8-1 .7-.7.7-1.5.2-2.1-.5-.5-1.2-.5-2.2-.1-1.3.6-2.4.7-3.2-.1-.8-.8-.8-1.9-.1-3l-1-1 .6-.6.9.9c.6-.5 1.1-.8 1.6-.9l.4.9c-.3.1-.9.3-1.5.9-.7.7-.6 1.4-.2 1.8.5.5 1.1.4 2.3-.1 1.4-.6 2.4-.6 3.2.3.7.7.9 2 .1 3.1l1 1-.6.9z"/><circle opacity=".6" fill="none" stroke="#3F6689" stroke-miterlimit="10" cx="44.6" cy="27" r="2.5"/><path fill="none" stroke="#3F6689" stroke-width="2" stroke-linejoin="bevel" stroke-miterlimit="10" d="M11.100000381469727,40.599998474121094l31.80000114440918,-31.89999771118164c0.20000076293945312,-0.19999980926513672,0.5,-0.19999980926513672,0.7000007629394531,0l18.5,18.5c0.20000076293945312,0.20000076293945312,0.20000076293945312,0.5,0,0.7000007629394531l-12.500003814697266,12.599998474121094"/><path fill="none" stroke="#3F6689" stroke-width="2" stroke-linejoin="round" stroke-miterlimit="10" d="M58.2 59h-8.8c-2 0-3.6 2-3.6 4s1.6 4 3.6 4h8.8l3.8-3.9v-7.8L58.2 59z"/><circle fill="none" stroke="#3F6689" stroke-linejoin="round" stroke-miterlimit="10" cx="50" cy="62.6" r="1.5"/><path opacity=".2" fill="none" stroke="#3F6689" stroke-width="2" stroke-linecap="round" stroke-linejoin="round" stroke-miterlimit="10" d="M59 46h1M59 53h1"/></svg>